<svg role="img" viewBox="0 0 72 72" xmlns="http://www.w3.org/2000/svg" id="Pydantic--Streamline-Simple-Icons.svg" height="100" width="100">
  <desc>Pydantic Streamline Icon: https://streamlinehq.com</desc>
  <title>Pydantic</title>
  <path d="M71.478 51.948l-12.69 -17.598 -20.541 -28.488c-1.044 -1.44 -3.453 -1.44 -4.491 0l-20.535 28.482 -12.699 17.598a2.775 2.775 0 0 0 1.38 4.251l33.234 10.878h0.006a2.76 2.76 0 0 0 1.716 0h0.006l33.234 -10.878c0.84 -0.276 1.5 -0.93 1.77 -1.776a2.748 2.748 0 0 0 -0.39 -2.475h0.006ZM36.003 12.21l13.32 18.474 -12.456 -4.08c-0.096 -0.03 -0.198 -0.024 -0.294 -0.048a2.4 2.4 0 0 0 -0.288 -0.048c-0.096 -0.012 -0.186 -0.048 -0.282 -0.048s-0.186 0.036 -0.282 0.048a2.22 2.22 0 0 0 -0.288 0.048c-0.096 0.018 -0.198 0.018 -0.288 0.048L22.77 30.663l-0.078 0.024 13.32 -18.474h-0.006Zm-18.819 26.1l14.502 -4.749 1.548 -0.504v27.57L7.23 52.116l9.951 -13.8Zm21.591 22.311v33.06l16.05 5.256 9.948 13.794 -26.004 8.514Z" fill="#FF0000" stroke-width="1"></path>
</svg>
